<?xml version="1.0" standalone="no"?>
<!DOCTYPE svg PUBLIC "-//W3C//DTD SVG 20010904//EN"
 "http://www.w3.org/TR/2001/REC-SVG-20010904/DTD/svg10.dtd">
<svg version="1.0" xmlns="http://www.w3.org/2000/svg"
 width="512.000000pt" height="512.000000pt" viewBox="0 0 512.000000 512.000000"
 preserveAspectRatio="xMidYMid meet">

<g transform="translate(0.000000,512.000000) scale(0.100000,-0.100000)"
fill="#000000" stroke="none">
<path d="M2660 4920 c-267 -111 -510 -209 -540 -220 -30 -10 -210 -84 -400
-163 -190 -80 -606 -252 -925 -382 -319 -130 -595 -246 -612 -257 -44 -27 -61
-80 -40 -130 13 -31 37 -49 172 -128 86 -51 153 -96 148 -101 -4 -4 -71 -34
-147 -66 -151 -63 -180 -87 -180 -147 0 -18 8 -45 17 -59 9 -15 84 -66 167
-114 82 -48 150 -91 150 -94 0 -4 -37 -22 -82 -40 -177 -70 -226 -96 -242
-128 -42 -80 -16 -112 176 -226 l158 -93 -145 -62 c-79 -34 -156 -74 -170 -87
-34 -34 -35 -101 -2 -137 12 -14 94 -67 182 -119 l160 -94 5 -789 c5 -717 7
-793 23 -833 83 -209 395 -368 840 -426 479 -64 989 8 1292 180 43 25 82 45
87 45 5 0 39 -18 75 -40 288 -174 817 -248 1310 -184 384 49 689 185 798 355
56 87 56 84 53 870 -3 711 -3 725 -24 769 -94 202 -425 358 -869 410 -55 7
-101 13 -102 14 -1 1 113 51 255 111 357 151 357 151 377 189 24 44 14 97 -23
128 -16 13 -90 59 -166 102 -76 43 -134 82 -129 86 4 4 70 33 146 65 176 75
205 103 185 179 -12 45 -31 60 -189 148 -82 46 -149 85 -149 88 0 3 69 34 152
70 104 45 157 73 171 91 23 32 25 88 3 121 -9 13 -86 64 -172 112 -85 48 -153
90 -151 93 3 3 72 33 153 68 145 63 178 86 186 130 6 30 -9 79 -29 98 -10 9
-329 190 -708 403 -453 254 -702 388 -725 390 -28 3 -137 -38 -520 -196z
m1065 -341 c305 -171 555 -314 555 -318 0 -3 -200 -90 -445 -194 l-445 -187
-512 341 c-426 284 -509 344 -493 351 80 34 772 317 778 317 4 1 257 -139 562
-310z m-1025 -499 l570 -380 0 -650 0 -649 -42 -11 c-97 -25 -153 -42 -222
-69 l-73 -28 -6 64 c-3 44 -15 84 -36 127 l-31 63 0 490 c0 425 -2 491 -15
511 -9 12 -261 187 -561 388 -300 201 -544 368 -542 370 8 7 363 152 376 153
6 1 269 -170 582 -379z m-689 -221 c281 -187 507 -344 503 -348 -10 -9 -886
-381 -897 -381 -9 0 -1099 640 -1115 654 -9 9 100 58 475 213 269 110 496 201
506 202 9 1 247 -152 528 -340z m2157 -13 c67 -38 121 -71 119 -72 -4 -4 -787
-334 -792 -334 -3 0 -5 56 -5 123 l0 124 273 116 c149 64 275 115 278 114 3
-1 60 -33 127 -71z m-7 -482 c66 -36 119 -69 119 -72 0 -4 -154 -72 -343 -151
-188 -80 -366 -155 -395 -168 l-53 -23 3 127 3 126 265 113 c146 62 269 113
274 114 5 0 62 -30 127 -66z m-3011 -214 c306 -180 433 -250 455 -250 18 0
242 90 526 210 271 115 500 210 507 210 10 0 12 -28 10 -121 l-3 -121 -255
-108 -255 -108 -110 14 c-155 20 -451 19 -610 -1 -71 -9 -136 -18 -143 -20
-15 -5 -784 446 -776 454 9 10 198 89 214 90 8 1 206 -112 440 -249z m3019
-274 c123 -69 123 -69 95 -81 -197 -84 -752 -319 -761 -322 -10 -4 -13 24 -13
119 l0 125 273 116 c149 64 274 115 277 114 3 -1 61 -33 129 -71z m-3331 -26
c61 -36 112 -68 112 -71 0 -4 -26 -18 -57 -32 -32 -14 -79 -38 -104 -52 l-46
-26 -127 76 c-70 43 -126 79 -123 81 9 9 213 93 222 91 6 -1 61 -31 123 -67z
m1802 -74 l0 -64 -75 32 -74 31 67 32 c37 17 70 32 75 32 4 1 7 -28 7 -63z
m-580 -121 c345 -46 650 -190 650 -307 0 -88 -135 -184 -360 -256 -312 -100
-797 -114 -1140 -33 -233 55 -410 145 -460 234 -38 66 -11 117 98 188 156 102
425 174 717 193 102 6 385 -4 495 -19z m-1540 -315 c0 -5 -7 -10 -15 -10 -8 0
-15 5 -15 10 0 6 7 10 15 10 8 0 15 -4 15 -10z m3580 -126 c201 -27 338 -64
479 -131 121 -58 191 -124 191 -180 0 -48 -25 -86 -86 -130 -141 -101 -331
-163 -609 -199 -186 -24 -558 -16 -705 15 -119 25 -276 75 -374 120 l-66 30 0
156 0 156 66 30 c161 73 383 131 568 149 119 11 391 3 536 -16z m-3090 -319
c103 -33 230 -61 395 -87 123 -19 523 -16 668 6 231 34 419 89 563 165 l74 38
0 -75 c0 -89 -16 -122 -85 -171 -188 -135 -515 -211 -907 -211 -396 0 -757 89
-918 227 -57 49 -70 80 -70 162 l0 70 87 -45 c49 -24 135 -60 193 -79z m-34
-438 c115 -40 284 -79 424 -99 122 -16 537 -16 645 0 254 40 435 91 576 162
44 22 82 40 84 40 12 0 4 -134 -10 -159 -59 -116 -330 -226 -665 -272 -124
-17 -497 -17 -620 0 -195 27 -379 79 -499 141 -145 76 -181 122 -181 234 l0
65 73 -39 c39 -21 118 -54 173 -73z m3794 28 c0 -70 -2 -77 -32 -111 -95 -109
-325 -198 -610 -239 -158 -23 -479 -31 -604 -16 -196 25 -368 71 -526 143
l-68 31 0 98 c0 55 2 99 5 99 3 0 59 -18 124 -40 400 -133 896 -146 1336 -34
107 27 268 88 325 123 19 11 38 21 43 21 4 0 7 -34 7 -75z m-3755 -488 c217
-70 431 -100 705 -100 382 0 729 73 948 200 l42 25 0 -74 c0 -86 -17 -121 -82
-169 -128 -93 -326 -159 -593 -195 -146 -21 -483 -20 -630 0 -253 35 -464 105
-582 192 -71 53 -93 95 -93 178 l0 66 88 -44 c48 -24 137 -59 197 -79z m3755
36 l0 -77 -47 -45 c-147 -141 -461 -229 -883 -246 -309 -13 -576 35 -847 152
l-63 27 0 98 c0 54 2 98 5 98 3 0 59 -18 124 -40 145 -48 324 -85 491 -101
149 -14 427 -7 585 16 219 31 455 101 577 170 24 14 46 25 51 25 4 0 7 -35 7
-77z m-3953 -403 c109 -57 302 -116 473 -147 132 -24 170 -26 415 -27 278 -1
353 5 545 46 162 34 282 78 453 166 4 2 7 -29 7 -69 0 -84 -15 -114 -84 -165
-309 -232 -1087 -287 -1582 -113 -154 54 -266 124 -299 190 -13 25 -22 159
-11 159 2 0 39 -18 83 -40z m3938 -130 c-29 -57 -157 -134 -310 -187 -89 -31
-270 -68 -407 -83 -154 -18 -500 -8 -648 18 -195 35 -399 104 -465 156 -26 21
-28 26 -18 49 7 14 15 53 19 87 6 51 9 60 23 55 103 -43 267 -88 411 -116 145
-27 480 -37 668 -20 248 23 494 86 659 169 l78 40 3 -69 c2 -47 -2 -78 -13
-99z"/>
</g>
</svg>
